<?xml version="1.0" encoding="UTF-8"?>
<svg id="_图层_1" data-name="图层 1" xmlns="http://www.w3.org/2000/svg" viewBox="0 0 311.63 145.56">
  <defs>
    <style>
      .cls-1, .cls-2 {
        fill: #f88201;
      }

      .cls-1, .cls-2, .cls-3, .cls-4, .cls-5 {
        stroke-width: 0px;
      }

      .cls-1, .cls-3 {
        fill-rule: evenodd;
      }

      .cls-3, .cls-5 {
        fill: #fdad32;
      }

      .cls-4 {
        fill: #fff;
      }
    </style>
  </defs>
  <path class="cls-2" d="M308.33,98.02c-.25-.28-.52-.55-.8-.81-.05-.38-.1-.74-.14-1.08-.03-.25-.07-.49-.09-.71l-.11-.94c-1.27-10.43-2.46-20.29-3.72-30.96-.03-.29-.06-.57-.09-.84-.16-1.74-.41-4.36-1.69-7.1-2.48-5.33-7.73-8.63-13.73-8.63-2.67,0-5.01.39-7.09.72-.99.16-1.92.31-2.87.42-.16.02-.6.05-.98.08-.08-.17-.16-.34-.25-.51l-4.99-9.57c-.03-.06-.07-.12-.1-.18-.19-.5-.42-.99-.67-1.47l-1.5-2.77c-2.99-5.53-9.43-8.01-15.23-6.19-.67-.77-1.43-1.47-2.29-2.09l-3.68-2.62c-1.72-1.22-3.7-1.99-5.75-2.27-.35-.27-.71-.53-1.09-.76-.94-2.57-2.68-4.8-5-6.34l-2.31-1.53c-3.34-2.22-7.42-2.7-11.06-1.55-.35.04-.71.1-1.06.17l-2.43.5c-2.18.45-4.18,1.44-5.83,2.85h-1.09c-.49,0-.97.02-1.44.07-1.73-2.8-4.48-4.84-7.69-5.69l-5.09-1.34c-6.44-1.7-13.12,1.78-15.42,8.02-.2.53-.38,1.04-.57,1.54l-2.94.34c-1.36-2.16-3.35-3.9-5.74-4.95l-2.54-1.11c-3.67-1.61-7.77-1.39-11.16.37-.34.1-.68.22-1.02.35l-2.31.91c-.58.23-1.13.49-1.66.8-.19,0-.39.02-.58.04-.71.07-4.34.57-5.28.77-.81.18-1.58.42-2.33.73-.42.05-.83.11-1.24.2-.36,0-.72.03-1.08.06l-2.47.25c-2.08.21-4.04.93-5.75,2.04-2.31.23-4.47,1.06-6.32,2.38-3.05.84-5.72,2.78-7.58,5.58-.05,0-.09,0-.14-.01-.7-.36-1.44-.66-2.2-.9-.93-1.76-2.26-3.3-3.93-4.52-.6-.44-5.17-3.25-8.11-4.01-.8-.21-2.05-.49-3.66-.49s-3.08.27-4.5.78c-.93-.21-1.93-.33-3.01-.33-.27,0-.54,0-.8.02-1.02.06-2.04.26-3.03.54-.42-.52-.83-1.03-1.24-1.55-.09-.12-.18-.24-.28-.38-1.52-2.07-5.56-7.58-12.98-8.07-.32-.02-.65-.03-.97-.03-5.02,0-9.05,2.55-11.21,3.91l-.28.18c-1.6,1-2.95,2.01-4.04,2.82-.28.21-.55.41-.82.6-1.21.88-2.42,1.77-3.61,2.67-.62-1.5-1.49-2.94-2.71-4.26-4.48-4.89-10.76-4.89-13.13-4.89-.5,0-1.01,0-1.5.02-.3,0-.6.01-.87.01h-13.25c-.2,0-.43,0-.68-.02-.52-.02-1.16-.03-1.86-.03-2.33,0-8.52,0-13.01,4.98-4.49,4.98-4.19,11.34-3.93,16.95.03.72.07,1.53.07,1.92v64.68c0,.43-.02,1.11-.05,1.83-.2,5.77-.47,13.68,5.97,18.55,4.46,3.37,9.53,3.13,12.71,3.04.38-.01.74-.02,1.06-.02h12.72c.2,0,.62.01.98.03.65.02,1.38.05,2.18.05,2.75,0,6.83-.31,10.47-2.99,4.12-3.04,5.52-7.25,5.96-11.09,1.1,1.71,2.21,3.4,3.32,5.07.1.15.2.32.3.49,1.46,2.38,5.33,8.71,13.21,9.45.49.05.99.07,1.48.07h0c3.49,0,6.44-1.14,8.53-2.12,0,.01,0,.03,0,.04.75,2.98,3.17,8.3,10.9,10.57,1.88.55,3.75.84,5.12,1.05.31.05.73.11.86.14.51.1,1.03.22,1.54.33.73.16,1.48.33,2.25.48.16.03.32.07.5.11,1.26.29,3.16.72,5.39.72h0c1.2,0,2.38-.13,3.51-.38.06-.02.12-.03.19-.05,2.16,3.53,5.97,5.96,10.41,6.18,22.44,1.09,45.14,2.17,67.09,3.22l11.62.56c29.25,1.4,60.42,2.89,91.71,4.44.22.01.43.02.65.02,6.77,0,12.45-5.27,12.89-12.1.31-4.83.54-9.77.76-14.55.17-3.8.35-7.73.57-11.51.2-3.44-.98-6.81-3.28-9.38Z"/>
  <path class="cls-4" d="M301.73,91.77c-.25-.28-.52-.55-.8-.81-.05-.38-.1-.74-.14-1.08-.03-.25-.07-.49-.09-.71l-.11-.94c-1.27-10.43-2.46-20.29-3.72-30.96-.03-.29-.06-.57-.09-.84-.16-1.74-.41-4.36-1.69-7.1-2.48-5.33-7.73-8.63-13.73-8.63-2.67,0-5.01.39-7.09.72-.99.16-1.92.31-2.87.42-.16.02-.6.05-.98.08-.08-.17-.16-.34-.25-.51l-4.99-9.57c-.03-.06-.07-.12-.1-.18-.19-.5-.42-.99-.67-1.47l-1.5-2.77c-2.99-5.53-9.43-8.01-15.23-6.19-.67-.77-1.43-1.48-2.29-2.09l-3.68-2.62c-1.72-1.22-3.7-1.99-5.75-2.27-.35-.27-.71-.53-1.09-.76-.94-2.57-2.68-4.8-5-6.34l-2.31-1.53c-3.34-2.22-7.42-2.7-11.06-1.55-.35.04-.71.1-1.06.17l-2.43.5c-2.18.45-4.18,1.44-5.83,2.85h-1.09c-.49,0-.97.02-1.44.07-1.73-2.8-4.48-4.84-7.69-5.69l-5.09-1.34c-6.44-1.7-13.12,1.78-15.42,8.02-.2.53-.39,1.04-.57,1.54l-2.94.34c-1.36-2.16-3.35-3.9-5.74-4.95l-2.54-1.11c-3.67-1.61-7.77-1.39-11.16.37-.34.1-.68.22-1.02.35l-2.31.91c-.58.23-1.13.49-1.66.8-.19,0-.39.02-.58.04-.71.07-4.34.57-5.28.77-.81.18-1.58.42-2.33.73-.42.05-.83.11-1.24.2-.36,0-.72.03-1.08.06l-2.47.25c-2.08.21-4.04.93-5.75,2.04-2.31.23-4.47,1.06-6.32,2.38-3.05.84-5.72,2.79-7.58,5.58-.05,0-.09,0-.14-.01-.7-.36-1.44-.66-2.2-.9-.93-1.76-2.26-3.3-3.93-4.52-.6-.44-5.17-3.25-8.11-4.01-.8-.21-2.05-.49-3.65-.49s-3.08.27-4.5.78c-.93-.21-1.93-.33-3.01-.33-.27,0-.54,0-.8.02-1.02.06-2.04.26-3.02.54-.42-.52-.83-1.03-1.24-1.55-.09-.12-.18-.24-.28-.38-1.52-2.07-5.56-7.58-12.98-8.07-.32-.02-.65-.03-.97-.03-5.02,0-9.05,2.55-11.21,3.91l-.28.18c-1.6,1-2.95,2.01-4.04,2.82-.28.21-.55.41-.82.6-1.21.88-2.42,1.77-3.61,2.67-.62-1.51-1.49-2.94-2.71-4.26-4.48-4.89-10.76-4.89-13.13-4.89-.5,0-1.01,0-1.5.02-.3,0-.6.01-.87.01h-13.25c-.2,0-.43,0-.68-.02-.52-.01-1.16-.03-1.86-.03-2.33,0-8.52,0-13.01,4.98C-.43,10.97-.13,17.33.13,22.94c.03.72.07,1.53.07,1.92v64.68c0,.43-.02,1.11-.05,1.83-.2,5.77-.47,13.68,5.97,18.55,4.46,3.37,9.53,3.13,12.71,3.04.38-.01.74-.02,1.06-.02h12.72c.2,0,.62.02.98.03.65.02,1.38.05,2.18.05,2.75,0,6.83-.31,10.47-2.99,4.12-3.04,5.52-7.25,5.96-11.09,1.1,1.71,2.21,3.4,3.32,5.07.1.15.2.32.3.49,1.46,2.38,5.33,8.71,13.21,9.45.49.05.99.07,1.48.07h0c3.49,0,6.44-1.14,8.53-2.12,0,.01,0,.03,0,.04.75,2.98,3.17,8.3,10.9,10.57,1.88.55,3.75.84,5.12,1.05.31.05.73.11.86.14.51.1,1.03.22,1.54.33.73.16,1.48.33,2.25.48.16.03.32.07.5.11,1.26.29,3.16.72,5.39.72h0c1.2,0,2.38-.13,3.51-.38.06-.02.12-.03.19-.05,2.16,3.53,5.97,5.96,10.41,6.18,22.44,1.09,45.14,2.17,67.09,3.22l11.62.56c29.25,1.4,60.42,2.89,91.71,4.44.22.01.43.02.65.02,6.77,0,12.45-5.27,12.89-12.1.31-4.83.54-9.77.76-14.55.17-3.8.36-7.73.57-11.51.2-3.44-.98-6.81-3.28-9.38Z"/>
  <path class="cls-1" d="M80.19,69.66c-2.67-4.52-6.02-10.03-9.81-14.18-1.18-1.29-3.17-3.22-4.77-3.31-1.33-.08-2.74.82-4.11,1.33-4.24,1.56-7.93,2.95-11.93,4.11,11.76-8.34,23.64-16.56,35.25-25.05-.39-1.32-.14-2.54.4-3.58-3.25-4.19-6.68-8.19-10.07-12.46-1.02-1.29-2.26-3.47-3.98-3.58-1.4-.09-3.55,1.36-4.77,2.12-1.54.96-2.9,2.04-4.11,2.92-7.58,5.51-14.44,11.13-21.21,17.1-.62.54-1.17,1.48-1.72,1.33v-11.13c0-2.38.77-9.18-.53-10.6-.82-.9-3.9-.66-5.96-.66h-13.25c-1.69,0-5.07-.32-5.96.66-1.23,1.36-.53,7.36-.53,10.21v64.68c0,3.04-.59,9.02.79,10.07.9.69,3.99.4,5.96.4h12.72c1.89,0,4.97.33,5.96-.4,1.26-.93.79-5.38.79-7.95v-26.64c1.28-1.15,2.74-2.12,4.24-3.05,7.8,10.94,15.07,23.48,22.66,34.86,1.01,1.51,2.2,4.07,3.98,4.24,1.62.15,3.85-1.2,5.3-1.86,3.57-1.62,6.35-2.98,9.94-4.64,1.44-.67,3.95-1.46,4.37-2.92.47-1.62-.85-4.38-1.59-6.1-2.59-6.05-4.94-10.59-8.08-15.9Z"/>
  <path class="cls-1" d="M175.88,46.73c-3.78-3.68-9.58-6.53-17.23-5.96-3.53.26-6.77,1.06-9.54,2.25-7.76,3.35-14.09,9.67-13.92,20.81.21,13.38,10.06,22.97,24.12,21.87,6.41-.5,11.72-3.4,15.9-7.16,4.08-3.67,7.38-8.53,7.55-15.64.18-7.5-3.27-12.65-6.89-16.17ZM158.78,71.38c-5.76-.52-9.43-7.52-6.63-12.99.98-1.92,2.97-3.45,6.1-3.84,2.73-.35,5.02.58,6.1,1.59,5.23,4.92,3.19,16.03-5.57,15.24Z"/>
  <path class="cls-3" d="M134.13,52.16c-1.53-1.42-4.38-2.06-7.16-2.92-2.83-.87-6.43-2.29-8.75-1.99-1.95,3.35-3.34,7.17-4.9,10.87-1.58,3.72-3,7.51-4.77,11-3.36-4.96-6.71-10.01-10.21-15.24-1-1.5-2.3-4.18-4.11-4.37-1.46-.16-2.78.86-3.98,1.46-1.4.69-2.34,1.27-3.58,1.86-1.7.81-6.57,2.19-6.76,4.24-.11,1.19,1.51,2.98,2.25,4.11,6.1,9.24,12.22,18.13,18.16,27.04-2.34,4.89-4.46,9.94-6.76,15.11-.6,1.36-2.39,3.85-1.99,5.43.39,1.55,4.91,1.85,6.89,2.25,1.24.25,2.57.57,3.71.8,1.27.25,2.96.79,4.11.53,1.85-.41,3.42-4.53,4.51-6.49,4.1-7.38,7.67-14.19,11.27-21.74,4.96-10.43,9.97-20.15,12.06-31.94Z"/>
  <path class="cls-2" d="M280.18,97.22c1.72-.2,7.12-.36,7.82-1.33.56-.77.08-3.42-.13-5.17-1.33-10.98-2.54-20.94-3.84-31.94-.33-2.8-.15-5.17-2.65-5.17-2.61,0-5.19.68-8.48,1.06-2.13.25-6.83.24-7.55,1.46-.64,1.08.17,4.71.4,6.63.83,7.01,1.82,13.68,2.52,20.54-1.98,1.34-4.13,3.25-7.29,2.39-4-1.09-4.82-7.51-5.96-12.46-.51-2.21-1.09-4.76-1.72-7.42-.52-2.22-.93-6.23-2.39-6.89-1.88-.86-6.32,1.05-7.95,1.46-1.91.48-6.63.96-7.55,2.39-1.31,2.01.62,7.43,1.06,9.81,1.71,9.18,3.04,18.51,8.08,24.12.83.92,1.46,1.59,1.46,1.59,7.48.16,16.01.56,23.72.93,2.66-1.43,6.52-1.54,10.47-1.99Z"/>
  <path class="cls-1" d="M183.96,109.42c-2.4.69-1.33,4.73,1.33,3.98,1.85-.52,1.6-4.82-1.33-3.98Z"/>
  <path class="cls-3" d="M251.16,112.46c-.64.19-1.02.52-1.19.93-1.29,3.14,3.62,4.33,3.71,1.06.04-1.42-.7-2.52-2.52-1.99Z"/>
  <polygon class="cls-3" points="222.73 17.92 220.42 16.39 218.79 17.88 221.13 19.79 222.73 17.92"/>
  <polygon class="cls-3" points="219.16 19.37 218.03 16.91 215.6 17.41 216.7 19.83 219.16 19.37"/>
  <polygon class="cls-1" points="162.01 17.42 159.48 16.31 158.12 18.06 160.76 19.54 162.01 17.42"/>
  <polygon class="cls-1" points="158.74 19.46 157.21 17.23 154.9 18.14 156.39 20.34 158.74 19.46"/>
  <polygon class="cls-3" points="143.91 23.03 141.77 21.28 139.99 22.6 142.13 24.73 143.91 23.03"/>
  <polygon class="cls-3" points="140.21 24.11 139.33 21.56 136.86 21.81 137.71 24.33 140.21 24.11"/>
  <polygon class="cls-3" points="245 54.65 247.67 53.17 244.06 46.13 252.44 41.94 254.66 46.17 253.29 46.76 251.81 44.12 246.21 47.03 248.56 51.04 253.98 48.18 254.66 49.53 258.72 47.39 253.72 37.82 242.73 43.53 240.62 39.4 237.9 40.76 245 54.65"/>
  <polygon class="cls-3" points="253.04 36.34 251.54 33.57 242.1 38.52 243.39 41.33 253.04 36.34"/>
  <path class="cls-1" d="M229.98,33.43c-.61-.52-2.18-1.66-4.01-1.45-2.36.26-4.11,2.11-4.04,4.31.07,2.2,1.9,3.61,3.04,4.2-1.17.87-2.14,1.3-2.14,1.3l2.95,2.43s2.27-.5,4.14-2.25c1.88-1.75,2.04-3.41,2.04-3.41,0,0,.97-1.35,2.17-3.07l3.55,3.17,2.76-3.2-3.93-3.48c.55-.84,1.04-1.64,1.4-2.28l-3.68-2.62s-.48.75-1.19,1.82l-5.02-4.44-2.85,3.04,5.53,4.93c-.23.34-.45.67-.67,1h-.03ZM225.97,36.24c0-.6,1.11-1.5,1.87.22l-.02.03c-.05.06-.09.11-.13.15-1.13,1.27-1.72.21-1.72-.41Z"/>
  <path class="cls-3" d="M205.55,24.74c.55,0,7.38.12,7.38.12,0,0-1.41,1.62-1.41,5.56,0,5.18,3.99,6.95,3.99,6.95l3.23-2.6c-2.64-2.17-2.91-4.91-1.33-7.22,1.58-2.31,2.98-3.02,2.98-3.02,0,0,.18-2.84.21-3.32.03-.48-.39-.68-.77-.68h-13.73c-.24,0-.89.06-.92.48-.03.42-.31,2.88-.27,3.16s.11.58.65.58Z"/>
  <path class="cls-1" d="M195.78,29.54c.05.05,4.66-1.24,4.8-1.32s.15-.57,0-1.13c-.15-.57-2.08-3.9-2.52-4.31s-.79-.54-1.27-.44l-3.66,1.02s2.59,6.14,2.64,6.19Z"/>
  <path class="cls-1" d="M185.28,28.84c1.57.06,3.43.1,5.36-.06,1.93-.17,2.63-.74,2.57-1.12s-.35-3.05-.6-3.32c-.25-.27-2.8-.08-2.8-.08l3.86-9.78-5.09-1.34s-5.08,13.77-5.29,14.38.42,1.26,1.99,1.32Z"/>
  <path class="cls-3" d="M165.93,29.18c.57-.08,14.15-1.52,14.36-1.57.22-.05.61-.17.54-.63-.07-.46-.43-3.42-.46-3.68-.03-.26-.11-.55-.7-.52l-14.26,1.66c-.31.02-.68.16-.64.61.04.45.36,3.44.4,3.69s.2.54.77.45Z"/>
  <path class="cls-1" d="M145.28,23.52c.25,2.01.45,4.98.45,5.32s.15.54.51.48,2.78-.43,3.01-.54c.23-.12.47-.41.67-1.67.76-.16,2.01-.42,3.4-.72-.05.05-.08.12-.09.2-.05.37.31.58.31,1.56,0,4.33-2.27,6.52-2.39,6.69-.13.18-.15.47.13.69.27.22,2.02,1.07,2.39,1.25.37.18.77.29.99.2.22-.1,2.04-1.51,3.17-3.85s.98-5.11.99-5.92c.01-.81-.29-1.03-1.14-1.03-.71,0-2.35-.05-3.13-.06,2.97-.63,6.11-1.3,6.3-1.37.37-.13.47-.25.43-.48-.04-.23-.56-2.78-.62-3.13s-.47-.61-.66-.57c-.17.04-8.59,1.76-9.93,2.03,0-.99-.02-1.78-.02-1.96,0-.46-.47-.89-.93-.85-.46.04-3.49.48-3.71.53-.22.05-.56.24-.48.7,0,0,.12.47.37,2.48Z"/>
  <path class="cls-3" d="M126.06,29.63c.22,0,1.48.22,2.88.6-.12.38-.23.73-.33,1.01-.71,2.06-1.94,5.11-2.06,5.39-.11.28-.02.47.19.57s2.42.79,2.65.83c.23.04.9.25,1.04.1.13-.15,1.58-3.14,2.52-6.07h0c1.29,1.44,1.72,2.39,1.23,4.01s-1.72,2.79-1.73,2.86c-.01.07,2.45,2.27,2.64,2.27s.47-.09.91-.5c.44-.41,2.91-2.79,2.91-6.01s-1.76-5.37-4.72-6.91c.4-1.5.67-2.64.67-2.8,0-.29-.03-.48-.59-.64-.56-.15-2.98-.49-3.18-.49s-.33.21-.42.44c0,0-.25.91-.6,2.12-.92-.18-2.87-.55-3.15-.58-.38-.03-1.43,2.97-1.48,3.29-.05.33.14.5.61.5Z"/>
  <path class="cls-3" d="M135.94,28.22c1.13.46,5.38,2.32,5.64,2.41.26.09.52.18.71-.19.19-.37,1.13-3.06,1.17-3.39s-.6-.69-1.89-1.06-3.89-.96-4.15-.96-.71.02-.8.17c-.08.15-.79,1.99-.84,2.46-.05.46-.04.49.15.57Z"/>
  <path class="cls-3" d="M92.54,29.88c-1.42.21-4.54.67-4.81.72-.36.07-.39.19-.39.49s.43,2.51.55,2.9.25.45.46.45,2.78-.3,2.78-.3c0,0-.31.26-.36,1.08s-.02,2.41,1.73,3.92,4.95,2.15,5.45,2.18c.5.03.87.01.99-.37.13-.38.69-2.95.71-3.26.01-.32-.46-.32-1.33-.66s-2.49-1.04-2.74-1.98c-.25-.94.29-1.41,1.21-1.74.92-.32,4.42-.68,4.73-.77s.36-.27.36-.56-.32-2.66-.38-3.02c-.06-.36-.35-.45-.67-.39l-3.33.53,4.52-4.5c.17-.22.27-.44,0-.64-.27-.2-3.39-1.85-3.71-1.93s-.59-.18-.84.14c-.25.32-3.38,5.05-4.69,7.32-.08.14-.16.27-.23.39Z"/>
  <path class="cls-3" d="M89.42,28.36c.34.37.49.46.71.39.22-.07,3.48-1.79,3.57-1.94s.21-.44-.07-.93c-.28-.49-.74-1.25-1.47-2.1s-1.31-1.42-1.85-1.38c-.54.03-2.78,1.2-3.05,1.36s-.39.39-.16.77l2.32,3.84Z"/>
  <path class="cls-1" d="M103.89,39c.27.13,2.41.48,2.41.48,0,0-.96,3.5-.99,4.07-.02.57-.19.78.29.84.48.06,2.16.34,2.39.38s.96.13,1.03-.13c.06-.25.29-1.53.29-1.53l.06-.21,1.39,4.79c.12.31.12.4.71.27.59-.12,2.48-.82,2.94-1.03s.61-.29.5-.84c-.06-.3-1.44-4.83-2.69-8.87.48-.34,1.26-.8,1.96-.8,1.11,0,2.14.86,3.13,3.13.99,2.27,1.71,3.08,2.92,3.64,1.3.61,2.28.65,2.53.55s1.8-2.4,1.86-2.72.21-.4-.21-.69c-.42-.29-1.72-.98-2.52-2.57s-.99-3.58-3.66-4.98c-2.35-1.24-5.07-1.3-7.35.12-.37-1.18-.62-1.96-.66-2.05-.17-.38-.57-.54-.9-.5-.34.04-2.48.65-2.98.82-.5.17-.46.57-.36.92.08.27.79,2.24,1.14,3.23h-.11s-1.18-.06-1.47-.01-.9.08-1.01.38c-.1.29-.69,2.1-.82,2.52s-.11.69.17.81Z"/>
  <path class="cls-3" d="M232,74.29c-.42-1.68-1.8-10.24-2.18-11.41-.38-1.18-.71-2.56-4.66-2.43s-18.93,4.57-18.93,4.57l8.19-25.39s-2.77-1.22-3.95-3.48c-1.17-2.27-1.68-5.58-1.68-5.58l-5.71-1.85s-.55,1.34-1.51,1.89c-.96.55-3.73,1.13-3.73,1.13,0,0-17.36,52.78-18.09,55.13-.73,2.35.28,2.57,1.73,3.13s10.13,3.36,12.48,3.98c2.35.61,2.8-.39,3.13-1.62l3.93-11.43s4.6-.58,10.13-1.29c-3.85,1.79-6.74,3.52-7.29,4.11-.78.84-1.34,1.62-.22,3.25l7.19,9.54,16.73.84s1.6-1.2,1.26-2.66c-.3-1.28-5.81-11.87-10.45-16,5.76-.74,10.87-1.41,11.48-1.51,1.47-.25,2.56-1.22,2.14-2.89Z"/>
  <g>
    <path class="cls-5" d="M292.11,100.4c-7.48-.38-15.2-.53-22.4-1.19-6.07,3.58-19.01,4.08-23.72-.93l-18.42-.92s-8.2,5.68-9.12,6.15c-.92.48-1.82.36-2.55-.36-.73-.73-5.06-6.63-5.06-6.63-1.05-.05-2.11-.1-3.18-.15l-3.62,10.77c1.14.4,2.09,1.02,2.6,1.74,1.38,1.94.38,5.2,2.25,6.63-.51.95-1.38,1.54-2.25,2.12-1.29-.48-2.15-.81-2.78-1.99-.76-1.4-.11-3.66-1.06-4.8l-.76,2.24c.09,1.41.25,2.87-.04,4.15h-1.35l-1.58,4.7c30.53,1.46,61.04,2.92,91.73,4.44.55-8.55.83-17.37,1.33-25.97ZM220.15,113.53c-.85,1-2.74.75-4.64.93-.28-.73-.46-1.58-.66-2.39.35-.4,1.24-.27,1.59-.66-.71-1.57-2.69-.52-2.78.93-.16,2.42,2.26,2.92,4.11,3.18-.16,1.17-.63,2.02-1.19,2.78-4.35-.08-7.33-1.94-6.76-6.49.51-4.05,6.07-5.95,9.14-3.58.94.72,2.47,3.78,1.19,5.3ZM233.8,118.69c-1.3.31-3.08,0-4.37-.13-.04-4.68.26-10.17.66-14.84.02-.11.44-.4.4-.13,1.42-.05,2.69.05,3.98.13.05,4.74-.25,10.26-.66,14.98ZM242.94,119.36c-1.51-.13-3.13-.14-4.37-.53.08-1.91.27-3.7.53-5.43-1.18-.36-2.84-.26-4.11-.53-.25-1.24-.11-3.19.4-4.11,1.3.16,2.67.25,3.98.4.42-1.48.27-3.53.66-5.04,1.04-.4,3.42-.02,4.51.4-.52,4.96-.77,10.19-1.59,14.84ZM245.73,114.85c-.14-3.49,1.82-5.39,5.04-5.83,3.74-.52,6.97,1.93,6.89,5.57-.14,6.65-11.65,7.37-11.93.27ZM273.69,120.68c-1.29-.48-2.15-.81-2.78-1.99-.87-1.61.21-4.45-1.72-5.17-.39,2,.35,4.67-.13,6.76-1.31-.04-3.07.05-3.98,0-.61-2.18.82-6.39-1.46-6.89-.31,2.03-.04,4.64-.13,6.89-1.11.21-3,.21-4.11,0,.18-3.5-.31-7.02,0-10.2,2.2-.06,4.57-.88,6.36.13,2.87-1.27,6.73,0,7.95,1.72,1.37,1.93.38,5.19,2.25,6.63-.5.95-1.38,1.54-2.25,2.12ZM287.21,116.71c-.85,1-2.74.75-4.64.93-.28-.73-.46-1.58-.66-2.39.35-.4,1.24-.27,1.59-.66-.71-1.58-2.69-.52-2.78.93-.16,2.42,2.26,2.92,4.11,3.18-.16,1.17-.63,2.02-1.19,2.78-4.35-.08-7.33-1.94-6.76-6.49.51-4.05,6.07-5.95,9.14-3.58.94.72,2.47,3.78,1.19,5.3Z"/>
    <path class="cls-2" d="M202.12,110.34c-.17.84-.15,1.78-.09,2.74l.76-2.24c-.17-.2-.38-.38-.67-.5Z"/>
    <path class="cls-2" d="M198.01,117.24c-.64-2.15.88-6.45-1.46-6.89-.39,1.99.13,4.9-.27,6.89-1.26-.05-3,.07-3.84,0-.31-3.1-.05-6.76-.13-10.07,2.03-.3,4.56-.93,6.36,0,1.71-.71,3.73-.59,5.36-.02l3.62-10.77c-27.18-1.25-60.1-2.94-86.11-4.19-.29,8.77-.81,17.3-1.19,25.98,26.33,1.28,52.52,2.52,78.71,3.77l1.58-4.7c-.87,0-1.75,0-2.62,0ZM142.61,114.32c-.94.21-2.64.21-3.58,0-.58-1.32-.93-2.87-1.33-4.37-.88,1.33-.97,3.45-2.12,4.51h-3.45c-1.97-4.57-3.98-9.1-5.43-14.18,1.46.04,2.73-1.47,3.98-1.19.96.21,1.63,2.99,2.12,4.24.7,1.79,1.12,3.46,1.72,4.51.8-1.4.58-3.83,1.06-5.57,1.07-.12,2.6-.34,3.58-.13.84,1.55.91,3.86,1.46,5.7,1.48-2.36,1.64-6.05,2.78-8.75,1.5.23,2.92.53,4.11,1.06-.95,5.41-2.13,10.59-4.9,14.18ZM158.78,109.81c-.29,1.58-2.6,1.81-4.9,1.86-.48-.54-.48-1.55-.8-2.25.16-.59,1.16-.35,1.59-.66-.55-1.78-2.67-.71-2.78.8-.19,2.39,2.17,2.89,3.98,3.18.18.91-.56,1.99-1.06,2.65-6.24,1.31-9.02-6.5-4.9-9.67,2.94-2.27,9.89-1.31,8.88,4.11ZM164.61,115.65c-1.37-.09-2.86-.05-4.11-.27-.16-4.84.42-10.09.53-15.11,0-.23.1-.34.27-.4,1.45,0,2.99-.07,4.11.27-.18,5.25-.26,10.61-.8,15.51ZM177.87,113.92c-.14,1.37-3.26,2.52-5.04,2.52-2.1,0-4.18-1.05-5.17-2.78-3.07-5.35,4.22-11.16,9.41-7.02-.29,1.03-.76,1.89-1.19,2.78-1.5-.74-3.81-1.01-4.24.66-.82,3.16,3.35,3.38,4.9,1.59.6.48,1.41,1.43,1.32,2.25ZM190.33,112.6c-.45,2.48-3.63,4.4-6.23,4.37-5.33-.06-7.12-6.39-3.98-9.54.82-.82,1.46-1.19,3.45-1.46,4.06-.55,7.57,2.21,6.76,6.63Z"/>
  </g>
</svg>